<svg width="79" height="42" viewBox="0 0 79 42" fill="none" xmlns="http://www.w3.org/2000/svg">
<path d="M6.264 29.684H7.428V38H6.264V34.16H2.196V38H1.032V29.684H2.196V33.152H6.264V29.684ZM22.8969 33.836C22.8969 33.124 23.0009 32.496 23.2089 31.952C23.4249 31.408 23.7129 30.956 24.0729 30.596C24.4409 30.228 24.8649 29.952 25.3449 29.768C25.8329 29.584 26.3489 29.492 26.8929 29.492C27.4289 29.492 27.9329 29.584 28.4049 29.768C28.8849 29.952 29.3049 30.228 29.6649 30.596C30.0249 30.956 30.3089 31.408 30.5169 31.952C30.7329 32.496 30.8409 33.124 30.8409 33.836C30.8409 34.548 30.7329 35.176 30.5169 35.72C30.3089 36.264 30.0249 36.72 29.6649 37.088C29.3049 37.448 28.8849 37.72 28.4049 37.904C27.9329 38.088 27.4289 38.18 26.8929 38.18C26.3489 38.18 25.8329 38.088 25.3449 37.904C24.8649 37.72 24.4409 37.448 24.0729 37.088C23.7129 36.72 23.4249 36.264 23.2089 35.72C23.0009 35.176 22.8969 34.548 22.8969 33.836ZM24.1209 33.836C24.1209 34.34 24.1849 34.8 24.3129 35.216C24.4409 35.624 24.6209 35.972 24.8529 36.26C25.0929 36.548 25.3809 36.772 25.7169 36.932C26.0609 37.084 26.4449 37.16 26.8689 37.16C27.2929 37.16 27.6729 37.084 28.0089 36.932C28.3449 36.772 28.6289 36.548 28.8609 36.26C29.1009 35.972 29.2849 35.624 29.4129 35.216C29.5409 34.8 29.6049 34.34 29.6049 33.836C29.6049 33.332 29.5409 32.876 29.4129 32.468C29.2849 32.052 29.1009 31.7 28.8609 31.412C28.6289 31.124 28.3449 30.904 28.0089 30.752C27.6729 30.592 27.2929 30.512 26.8689 30.512C26.4449 30.512 26.0609 30.592 25.7169 30.752C25.3809 30.904 25.0929 31.124 24.8529 31.412C24.6209 31.7 24.4409 32.052 24.3129 32.468C24.1849 32.876 24.1209 33.332 24.1209 33.836ZM50.0448 36.848C49.9648 36.656 49.8568 36.412 49.7208 36.116C49.5928 35.82 49.4528 35.5 49.3008 35.156C49.1488 34.812 48.9848 34.46 48.8088 34.1C48.6408 33.732 48.4808 33.388 48.3288 33.068C48.1768 32.74 48.0328 32.448 47.8968 32.192C47.7688 31.936 47.6648 31.74 47.5848 31.604C47.4968 32.548 47.4248 33.572 47.3688 34.676C47.3128 35.772 47.2648 36.88 47.2248 38H46.0848C46.1168 37.28 46.1528 36.556 46.1928 35.828C46.2328 35.092 46.2768 34.372 46.3248 33.668C46.3808 32.956 46.4368 32.264 46.4928 31.592C46.5568 30.92 46.6248 30.284 46.6968 29.684H47.7168C47.9328 30.036 48.1648 30.452 48.4128 30.932C48.6608 31.412 48.9088 31.916 49.1568 32.444C49.4048 32.964 49.6448 33.488 49.8768 34.016C50.1088 34.536 50.3208 35.012 50.5128 35.444C50.7048 35.012 50.9168 34.536 51.1488 34.016C51.3808 33.488 51.6208 32.964 51.8688 32.444C52.1168 31.916 52.3648 31.412 52.6128 30.932C52.8608 30.452 53.0928 30.036 53.3088 29.684H54.3288C54.6008 32.364 54.8048 35.136 54.9408 38H53.8008C53.7608 36.88 53.7128 35.772 53.6568 34.676C53.6008 33.572 53.5288 32.548 53.4408 31.604C53.3608 31.74 53.2528 31.936 53.1168 32.192C52.9888 32.448 52.8488 32.74 52.6968 33.068C52.5448 33.388 52.3808 33.732 52.2048 34.1C52.0368 34.46 51.8768 34.812 51.7248 35.156C51.5728 35.5 51.4288 35.82 51.2928 36.116C51.1648 36.412 51.0608 36.656 50.9808 36.848H50.0448ZM70.5059 38V29.684H75.5819V30.68H71.6699V33.152H75.1499V34.124H71.6699V37.004H75.8819V38H70.5059Z" fill="white"/>
<path d="M5.38 18.62C5.82 18.62 6.18 18.5867 6.46 18.52C6.75333 18.44 6.98667 18.34 7.16 18.22C7.33333 18.0867 7.45333 17.9333 7.52 17.76C7.58667 17.5867 7.62 17.3933 7.62 17.18C7.62 16.7267 7.40667 16.3533 6.98 16.06C6.55333 15.7533 5.82 15.4267 4.78 15.08C4.32667 14.92 3.87333 14.74 3.42 14.54C2.96667 14.3267 2.56 14.0667 2.2 13.76C1.84 13.44 1.54667 13.06 1.32 12.62C1.09333 12.1667 0.98 11.62 0.98 10.98C0.98 10.34 1.1 9.76667 1.34 9.26C1.58 8.74 1.92 8.3 2.36 7.94C2.8 7.58 3.33333 7.30667 3.96 7.12C4.58667 6.92 5.29333 6.82 6.08 6.82C7.01333 6.82 7.82 6.92 8.5 7.12C9.18 7.32 9.74 7.54 10.18 7.78L9.28 10.24C8.89333 10.04 8.46 9.86667 7.98 9.72C7.51333 9.56 6.94667 9.48 6.28 9.48C5.53333 9.48 4.99333 9.58667 4.66 9.8C4.34 10 4.18 10.3133 4.18 10.74C4.18 10.9933 4.24 11.2067 4.36 11.38C4.48 11.5533 4.64667 11.7133 4.86 11.86C5.08667 11.9933 5.34 12.12 5.62 12.24C5.91333 12.3467 6.23333 12.46 6.58 12.58C7.3 12.8467 7.92667 13.1133 8.46 13.38C8.99333 13.6333 9.43333 13.9333 9.78 14.28C10.14 14.6267 10.4067 15.0333 10.58 15.5C10.7533 15.9667 10.84 16.5333 10.84 17.2C10.84 18.4933 10.3867 19.5 9.48 20.22C8.57333 20.9267 7.20667 21.28 5.38 21.28C4.76667 21.28 4.21333 21.24 3.72 21.16C3.22667 21.0933 2.78667 21.0067 2.4 20.9C2.02667 20.7933 1.7 20.68 1.42 20.56C1.15333 20.44 0.926667 20.3267 0.74 20.22L1.62 17.74C2.03333 17.9667 2.54 18.1733 3.14 18.36C3.75333 18.5333 4.5 18.62 5.38 18.62ZM13.2406 21V7.14H22.6006V9.76H16.3606V12.48H21.9006V15.04H16.3606V18.38H23.0606V21H13.2406ZM34.6495 21C34.5029 20.52 34.3362 20.0267 34.1495 19.52C33.9762 19.0133 33.8029 18.5067 33.6295 18H28.2295C28.0562 18.5067 27.8762 19.0133 27.6895 19.52C27.5162 20.0267 27.3562 20.52 27.2095 21H23.9695C24.4895 19.5067 24.9829 18.1267 25.4495 16.86C25.9162 15.5933 26.3695 14.4 26.8095 13.28C27.2629 12.16 27.7029 11.1 28.1295 10.1C28.5695 9.08667 29.0229 8.1 29.4895 7.14H32.4695C32.9229 8.1 33.3695 9.08667 33.8095 10.1C34.2495 11.1 34.6895 12.16 35.1295 13.28C35.5829 14.4 36.0429 15.5933 36.5095 16.86C36.9762 18.1267 37.4695 19.5067 37.9895 21H34.6495ZM30.9095 10.28C30.8429 10.48 30.7429 10.7533 30.6095 11.1C30.4762 11.4467 30.3229 11.8467 30.1495 12.3C29.9762 12.7533 29.7829 13.2533 29.5695 13.8C29.3695 14.3467 29.1629 14.92 28.9495 15.52H32.8895C32.6762 14.92 32.4695 14.3467 32.2695 13.8C32.0695 13.2533 31.8762 12.7533 31.6895 12.3C31.5162 11.8467 31.3629 11.4467 31.2295 11.1C31.0962 10.7533 30.9895 10.48 30.9095 10.28ZM43.8436 6.98C45.9236 6.98 47.5169 7.35333 48.6236 8.1C49.7303 8.83333 50.2836 9.98 50.2836 11.54C50.2836 12.5133 50.0569 13.3067 49.6036 13.92C49.1636 14.52 48.5236 14.9933 47.6836 15.34C47.9636 15.6867 48.2569 16.0867 48.5636 16.54C48.8703 16.98 49.1703 17.4467 49.4636 17.94C49.7703 18.42 50.0636 18.9267 50.3436 19.46C50.6236 19.98 50.8836 20.4933 51.1236 21H47.6236C47.3703 20.5467 47.1103 20.0867 46.8436 19.62C46.5903 19.1533 46.3236 18.7 46.0436 18.26C45.7769 17.82 45.5103 17.4067 45.2436 17.02C44.9769 16.62 44.7103 16.26 44.4436 15.94H42.9036V21H39.7836V7.34C40.4636 7.20667 41.1636 7.11333 41.8836 7.06C42.6169 7.00667 43.2703 6.98 43.8436 6.98ZM44.0236 9.64C43.7969 9.64 43.5903 9.64667 43.4036 9.66C43.2303 9.67333 43.0636 9.68667 42.9036 9.7V13.46H43.7836C44.9569 13.46 45.7969 13.3133 46.3036 13.02C46.8103 12.7267 47.0636 12.2267 47.0636 11.52C47.0636 10.84 46.8036 10.36 46.2836 10.08C45.7769 9.78667 45.0236 9.64 44.0236 9.64ZM59.0919 21.28C56.8385 21.28 55.1185 20.6533 53.9319 19.4C52.7585 18.1467 52.1719 16.3667 52.1719 14.06C52.1719 12.9133 52.3519 11.8933 52.7119 11C53.0719 10.0933 53.5652 9.33333 54.1919 8.72C54.8185 8.09333 55.5652 7.62 56.4319 7.3C57.2985 6.98 58.2385 6.82 59.2519 6.82C59.8385 6.82 60.3719 6.86667 60.8519 6.96C61.3319 7.04 61.7519 7.14 62.1119 7.26C62.4719 7.36667 62.7719 7.48 63.0119 7.6C63.2519 7.72 63.4252 7.81333 63.5319 7.88L62.6319 10.4C62.2052 10.1733 61.7052 9.98 61.1319 9.82C60.5719 9.66 59.9319 9.58 59.2119 9.58C58.7319 9.58 58.2585 9.66 57.7919 9.82C57.3385 9.98 56.9319 10.24 56.5719 10.6C56.2252 10.9467 55.9452 11.4 55.7319 11.96C55.5185 12.52 55.4119 13.2 55.4119 14C55.4119 14.64 55.4785 15.24 55.6119 15.8C55.7585 16.3467 55.9852 16.82 56.2919 17.22C56.6119 17.62 57.0252 17.94 57.5319 18.18C58.0385 18.4067 58.6519 18.52 59.3719 18.52C59.8252 18.52 60.2319 18.4933 60.5919 18.44C60.9519 18.3867 61.2719 18.3267 61.5519 18.26C61.8319 18.18 62.0785 18.0933 62.2919 18C62.5052 17.9067 62.6985 17.82 62.8719 17.74L63.7319 20.24C63.2919 20.5067 62.6719 20.7467 61.8719 20.96C61.0719 21.1733 60.1452 21.28 59.0919 21.28ZM74.1006 7.14H77.2206V21H74.1006V15.12H68.8606V21H65.7406V7.14H68.8606V12.44H74.1006V7.14Z" fill="white"/>
</svg>
